<svg xmlns="http://www.w3.org/2000/svg" xmlns:xlink="http://www.w3.org/1999/xlink" width="97" height="7" viewBox="0 0 97 7"><defs><path id="99sga" d="M761.172 48.588c-.007-.261-.08-.46-.22-.596a.7.7 0 0 0-.508-.204.706.706 0 0 0-.53.215c-.139.144-.207.339-.205.585zm-.056.924l.975.152a1.498 1.498 0 0 1-.593.759c-.271.174-.61.26-1.016.26-.643 0-1.119-.195-1.427-.585-.244-.313-.366-.707-.366-1.184 0-.57.16-1.015.48-1.338.32-.322.726-.483 1.216-.483.55 0 .984.168 1.302.506.318.337.47.855.457 1.551h-2.452c.007.27.086.48.237.63.15.15.339.224.564.224a.63.63 0 0 0 .386-.116c.105-.078.184-.203.237-.376zm-3.134 1.088h-.979v-1.75c0-.37-.02-.61-.062-.719a.51.51 0 0 0-.204-.253.616.616 0 0 0-.34-.09.829.829 0 0 0-.456.128.658.658 0 0 0-.277.343c-.05.142-.075.404-.075.788V50.6h-.978v-3.43h.909v.504c.322-.387.729-.581 1.219-.581.216 0 .413.036.592.108a.99.99 0 0 1 .405.276.97.97 0 0 1 .192.381c.036.142.054.346.054.61zm-5.346 0v-3.43h.985v3.43zm0-3.895v-.842h.985v.842zm-1.926 2.251a6.473 6.473 0 0 1-.595.14c-.272.054-.45.107-.533.16-.128.084-.191.191-.191.321 0 .128.05.239.153.332.102.093.232.14.39.14a.887.887 0 0 0 .505-.163.575.575 0 0 0 .233-.302c.026-.078.038-.227.038-.446zm-1.309-.738l-.888-.148c.1-.332.272-.578.515-.738.244-.16.606-.24 1.087-.24.436 0 .761.049.975.145.214.096.364.217.451.365.087.148.13.42.13.814l-.01 1.06c0 .303.016.525.047.669.032.143.09.297.176.46h-.968a3.177 3.177 0 0 1-.094-.268 1.558 1.558 0 0 0-.035-.106 1.776 1.776 0 0 1-.536.34c-.19.075-.394.112-.61.112-.38 0-.68-.096-.9-.287a.925.925 0 0 1-.329-.728.925.925 0 0 1 .57-.869c.18-.08.439-.151.778-.212.457-.08.774-.154.95-.223v-.09c0-.175-.046-.3-.139-.374-.093-.075-.268-.112-.526-.112-.174 0-.31.032-.407.096-.098.063-.177.175-.237.334zm-2.57 2.382h-.979v-3.43h.91v.488c.155-.23.295-.382.419-.455a.817.817 0 0 1 .423-.11c.223 0 .438.057.644.17l-.303.792a.904.904 0 0 0-.46-.148.572.572 0 0 0-.348.105c-.095.07-.17.196-.224.379-.055.183-.082.566-.082 1.15zm-4.938.006v-4.743h.978v2.517l1.146-1.21h1.205l-1.264 1.255 1.355 2.18h-1.056l-.93-1.542-.456.443v1.1zm-5.116-4.743h1.03v2.572c0 .408.014.673.04.793.043.195.148.35.314.468.166.118.393.177.681.177.293 0 .513-.056.662-.167a.653.653 0 0 0 .268-.41c.03-.161.045-.43.045-.806v-2.627h1.031v2.494c0 .57-.028.973-.084 1.208a1.3 1.3 0 0 1-.308.596c-.15.162-.35.291-.6.387-.251.096-.579.144-.983.144-.487 0-.857-.052-1.109-.157a1.584 1.584 0 0 1-.597-.408 1.277 1.277 0 0 1-.29-.526c-.066-.272-.1-.674-.1-1.205zm-6.411 1.307h1.043l.885 2.44.865-2.44h1.015l-1.307 3.306-.234.599c-.086.2-.168.354-.246.46a1.035 1.035 0 0 1-.642.41 2.082 2.082 0 0 1-.5.055c-.189 0-.374-.018-.555-.055l-.087-.712c.153.028.292.042.415.042.228 0 .396-.062.506-.186.109-.124.193-.282.25-.474l-1.365-3.34.004-.011a1.306 1.306 0 0 0-.012-.007zm-1.374 3.43h-.98v-3.43h.91v.488c.157-.23.297-.382.421-.455a.821.821 0 0 1 .425-.11c.219 0 .43.055.633.164l.008.019-.3.78a.907.907 0 0 0-.46-.15.574.574 0 0 0-.35.106c-.095.07-.17.196-.224.379-.055.183-.083.566-.083 1.15zm-2.777 0h-.98v-3.43h.91v.488c.155-.23.295-.382.42-.455a.817.817 0 0 1 .423-.11c.223 0 .437.057.644.17l-.303.792a.904.904 0 0 0-.46-.148.572.572 0 0 0-.348.105c-.095.07-.17.196-.225.379-.054.183-.081.566-.081 1.15zm-2.712-2.012c-.007-.261-.08-.46-.219-.596a.696.696 0 0 0-.506-.204.702.702 0 0 0-.527.215c-.14.144-.207.339-.205.585zm-.05.924l.975.152a1.498 1.498 0 0 1-.594.759c-.27.174-.609.26-1.015.26-.643 0-1.119-.195-1.428-.585-.243-.313-.365-.707-.365-1.184 0-.57.16-1.015.48-1.338.32-.322.726-.483 1.216-.483.55 0 .984.168 1.302.506.318.337.47.855.456 1.551h-2.451c.007.27.085.48.236.63.151.15.34.224.565.224a.63.63 0 0 0 .386-.116c.105-.078.184-.203.237-.376zm-6.485 1.094v-4.743h3.5v.803H718v1.122h2.132v.802h-2.132v2.016zm-5.669-2.17a1.309 1.309 0 0 0-.505.38.754.754 0 0 0-.167.457c0 .196.069.356.207.48.138.124.323.186.556.186.153 0 .3-.028.442-.084.141-.056.296-.149.463-.278zm.386-.982l.266-.188c.196-.141.294-.281.294-.42a.383.383 0 0 0-.142-.3.564.564 0 0 0-.383-.123.564.564 0 0 0-.368.11c-.089.072-.133.156-.133.251 0 .113.075.25.224.41zm2.667 2.573l-.593.702a3.478 3.478 0 0 1-.837-.544c-.206.173-.426.3-.659.382-.232.082-.509.123-.83.123-.636 0-1.115-.166-1.436-.498a1.237 1.237 0 0 1-.373-.887c0-.304.098-.577.293-.82.195-.242.487-.453.875-.632a2.567 2.567 0 0 1-.394-.548 1.091 1.091 0 0 1-.133-.494c0-.287.124-.53.372-.73.247-.199.6-.298 1.058-.298.442 0 .787.104 1.036.313.248.21.373.465.373.767a.925.925 0 0 1-.185.547c-.123.172-.372.367-.746.585l.711.87c.084-.138.156-.318.216-.54l.886.188a4.802 4.802 0 0 1-.23.639 1.69 1.69 0 0 1-.21.338c.11.095.251.199.424.312.173.113.3.188.382.225zm-8.28-1.439c-.007-.261-.08-.46-.22-.596a.7.7 0 0 0-.508-.204.706.706 0 0 0-.53.215c-.139.144-.207.339-.205.585zm-.056.924l.975.152a1.498 1.498 0 0 1-.594.759c-.27.174-.608.26-1.015.26-.643 0-1.119-.195-1.428-.585-.243-.313-.365-.707-.365-1.184 0-.57.16-1.015.48-1.338.32-.322.726-.483 1.216-.483.55 0 .984.168 1.302.506.318.337.47.855.456 1.551h-2.451c.007.27.086.48.237.63.15.15.338.224.564.224a.63.63 0 0 0 .386-.116c.105-.078.184-.203.237-.376zm-6.453.114l.982-.14a.661.661 0 0 0 .254.403c.128.092.307.138.537.138.253 0 .443-.043.57-.13a.282.282 0 0 0 .13-.242.23.23 0 0 0-.07-.172c-.049-.043-.158-.083-.327-.12-.79-.161-1.29-.309-1.501-.443-.293-.185-.44-.443-.44-.773 0-.297.127-.547.38-.75.253-.203.646-.304 1.177-.304.507 0 .883.076 1.129.23.246.153.415.379.508.679l-.923.158a.53.53 0 0 0-.224-.307c-.11-.071-.268-.107-.472-.107-.258 0-.442.034-.554.1-.074.048-.111.11-.111.185 0 .065.032.12.097.165.088.06.393.145.914.255.522.11.886.245 1.092.405.204.161.307.387.307.676 0 .315-.142.585-.425.812-.284.226-.703.34-1.257.34-.504 0-.903-.095-1.197-.285a1.316 1.316 0 0 1-.576-.773zm-1.637.974v-3.43h.979v3.43zm0-3.895v-.842h.979v.842zm-1.922 3.895v-.513a1.398 1.398 0 0 1-.531.432c-.22.106-.451.159-.695.159-.248 0-.471-.05-.669-.152a.927.927 0 0 1-.428-.426c-.088-.183-.132-.436-.132-.76v-2.17h.978v1.576c0 .483.018.778.054.887a.486.486 0 0 0 .197.258.64.64 0 0 0 .362.096.813.813 0 0 0 .45-.128.66.66 0 0 0 .271-.316c.049-.126.073-.435.073-.926V47.17h.979v3.43zm-4.273 0h-.979v-3.43h.91v.488c.155-.23.295-.382.419-.455a.817.817 0 0 1 .423-.11c.223 0 .438.057.644.17l-.303.792a.904.904 0 0 0-.46-.148.572.572 0 0 0-.348.105c-.095.07-.17.196-.224.379-.055.183-.082.566-.082 1.15zm-2.814-1.738l1 .295c-.154.517-.409.902-.765 1.153-.356.251-.809.377-1.356.377-.678 0-1.236-.215-1.672-.646-.437-.43-.655-1.018-.655-1.764 0-.79.22-1.403.658-1.84.44-.436 1.016-.654 1.731-.654.625 0 1.132.171 1.522.514.232.203.406.494.522.873l-1.02.227a.996.996 0 0 0-.378-.582 1.138 1.138 0 0 0-.698-.214c-.378 0-.685.126-.921.379-.236.252-.354.66-.354 1.226 0 .599.116 1.026.349 1.28.232.255.534.382.905.382.274 0 .51-.08.707-.242.197-.162.339-.417.425-.764zm-5.934-1.692v.725h-.669v1.384c0 .28.006.444.02.49a.2.2 0 0 0 .086.115c.046.03.1.046.166.046.09 0 .221-.03.393-.088l.084.706c-.228.09-.485.135-.773.135-.177 0-.336-.027-.477-.082a.694.694 0 0 1-.312-.214.806.806 0 0 1-.138-.354c-.02-.105-.031-.319-.031-.64v-1.498h-.45v-.725h.45v-.682l.982-.53v1.212zm-5.276 1.718c0 .34.087.602.261.783a.858.858 0 0 0 .644.272c.256 0 .47-.09.643-.272.173-.181.26-.444.26-.79 0-.336-.087-.595-.26-.776a.853.853 0 0 0-.643-.271c-.255 0-.47.09-.644.271-.174.181-.261.442-.261.783zm-1.003-.048c0-.302.08-.595.24-.877a1.59 1.59 0 0 1 .68-.647 2.14 2.14 0 0 1 .982-.223c.558 0 1.016.168 1.373.506.357.337.536.764.536 1.28 0 .52-.18.95-.54 1.292-.361.342-.815.512-1.362.512-.339 0-.661-.07-.969-.213a1.53 1.53 0 0 1-.7-.626c-.16-.275-.24-.61-.24-1.004zm-1.755 1.766v-4.743h.978v4.743zm-2.804-3.436h.543v-.258c0-.29.034-.505.1-.647a.756.756 0 0 1 .365-.348c.178-.09.403-.134.674-.134.279 0 .552.038.819.116l-.133.634a2.074 2.074 0 0 0-.449-.052c-.142 0-.243.031-.305.093-.061.061-.092.18-.092.354v.242h.731v.715h-.73v2.72h-.98v-2.72h-.543zm-.57 3.43h-.977v-1.75c0-.37-.02-.61-.062-.719a.51.51 0 0 0-.204-.253.614.614 0 0 0-.339-.09.826.826 0 0 0-.455.128.658.658 0 0 0-.276.343c-.05.142-.075.404-.075.788V50.6h-.977v-3.43h.907v.504c.322-.387.728-.581 1.217-.581.216 0 .413.036.591.108a.988.988 0 0 1 .405.276.97.97 0 0 1 .191.381c.036.142.054.346.054.61zm-5.364.006v-4.743h1.03v4.743z"/></defs><g><g transform="translate(-666 -45)"><use fill="#2281d6" xlink:href="#99sga"/></g></g></svg>